<svg width="144" height="48" viewBox="0 0 144 48" fill="none" xmlns="http://www.w3.org/2000/svg">
<path d="M18.9868 6.12613C19.1591 5.4067 19.3558 4.75668 19.8597 4.19252C20.9208 3.00439 22.5729 2.6222 24.0894 2.99437C25.1264 3.25108 26.0173 3.91204 26.5634 4.82969C27.8396 6.94283 26.8527 7.54317 26.5461 9.35047C26.1392 11.7486 25.9428 16.5741 27.0079 18.7041C28.1094 20.9067 32.2142 20.4855 34.2311 20.0917C35.0711 19.9277 36.0742 19.4674 36.9562 19.2576C42.2421 18.0006 44.4458 24.6702 39.9546 27.2338C37.9055 28.4033 35.8899 26.679 33.8118 26.6388C32.8412 26.5956 32.0913 26.4994 31.0835 26.607C30.9445 26.6219 30.1269 26.7095 30.0596 26.7108C25.9839 27.3803 25.9954 31.4701 26.4064 34.7923C26.6615 36.8537 27.7257 38.4836 27.1808 40.747C26.9478 41.7086 26.3438 42.5392 25.5005 43.0576C23.566 44.2364 20.5966 43.6693 19.3659 41.6712C17.9522 39.3763 19.6486 38.1123 19.7038 35.8343C19.7432 33.4345 20.0265 30.4639 18.8131 28.3051C17.7994 26.5015 15.5124 26.4478 13.6934 26.4333C12.0521 26.4201 10.3249 26.4619 8.71027 26.7556C7.37874 27.003 6.37256 27.7376 4.96274 27.3729C2.57152 26.7544 1.29576 24.3053 1.88486 21.9228C2.11573 20.9519 2.72764 20.1147 3.58282 19.5996C5.89191 18.2124 7.08718 19.7019 8.96482 20.0533C11.681 20.5615 17.9259 20.9475 19.2786 17.8658C20.1704 15.8341 20.1142 12.8172 19.6719 10.7079C19.3749 9.29145 18.644 7.48507 18.9868 6.12613ZM9.55481 22.6877L9.56233 24.0829C10.9961 24.1203 12.4303 24.1404 13.8646 24.143C16.3247 24.1587 18.958 23.9042 20.8117 25.86C21.338 26.4151 21.7261 27.0863 21.9446 27.8192C22.3389 29.1794 22.2343 33.4212 22.3216 35.1047L23.7864 35.0892C23.8673 33.0573 23.6409 28.9252 24.1967 27.2178C24.4051 26.5632 24.7789 25.9733 25.2821 25.5052C25.8787 24.9557 27.3778 24.2797 28.1463 24.276C28.6392 24.1638 30.1728 24.162 30.7368 24.1616C32.0359 24.1606 33.3079 24.163 34.6103 24.1277C34.5836 23.7783 34.6228 23.0982 34.6333 22.7255C31.9734 22.3536 27.6349 23.3954 25.5794 21.5748C23.8203 20.2255 23.9304 17.2156 23.9096 15.2306C23.8924 13.8483 23.8857 12.4659 23.8896 11.0835C23.445 11.0822 22.9287 11.0683 22.4907 11.0978L22.4773 14.495C22.4722 17.4366 22.5834 21.5522 18.9487 22.3997C17.6302 22.707 15.9602 22.6487 14.5961 22.6604L9.55481 22.6877Z" fill="white" fill-opacity="0.8"/>
<path d="M27.0066 18.7031C28.108 20.9057 32.2129 20.4845 34.2298 20.0908C35.0698 19.9268 36.0729 19.4664 36.9548 19.2567C42.2408 17.9997 44.4445 24.6692 39.9533 27.2328C37.9041 28.4024 35.8886 26.6781 33.8105 26.6378C32.8399 26.5946 32.09 26.4984 31.0822 26.6061C30.9432 26.6209 30.1256 26.7085 30.0583 26.7099L30.0922 26.621C30.9937 26.3534 32.5527 26.4541 33.5062 26.4944C33.5848 26.3729 33.5687 26.4294 33.5604 26.2776C33.8582 25.8218 33.4006 25.1122 33.1859 24.6675C33.2631 24.4852 33.3709 24.4809 33.581 24.3746L33.5547 24.2994C32.2552 24.1604 29.6415 24.3418 28.145 24.2751C28.6379 24.1628 30.1715 24.161 30.7355 24.1606C32.0346 24.1597 33.3066 24.1621 34.609 24.1267C34.5823 23.7774 34.6215 23.0972 34.632 22.7245C31.9721 22.3526 27.6336 23.3944 25.5781 21.5738C26.1034 21.504 27.3003 22.8262 28.0381 22.3045C28.0663 22.2845 28.3515 22.2169 28.4042 22.2039C28.4381 22.0402 28.422 22.0126 28.3606 21.8656C28.1877 21.8185 28.1413 21.8155 28.0222 21.6793C28.0023 21.6119 27.9578 20.2136 27.968 20.1215C28.1062 20.1267 28.2566 20.1536 28.3627 20.082C27.8274 19.7638 27.1681 19.4522 26.9283 18.8656L26.9209 18.847L27.0066 18.7031Z" fill="#0E9855"/>
<path d="M18.9844 6.12613C19.1567 5.4067 19.3535 4.75668 19.8574 4.19252C20.9185 3.00439 22.5705 2.6222 24.087 2.99437C25.124 3.25108 26.015 3.91204 26.561 4.82969C27.8372 6.94283 26.8503 7.54317 26.5437 9.35047C26.1368 11.7486 25.9405 16.5741 27.0056 18.7041L26.9198 18.8479C25.9019 17.3788 26.0077 11.9007 26.2923 10.0268C26.416 9.21195 27.191 7.049 26.9984 6.47947C26.89 6.51035 26.8365 6.53022 26.7224 6.53571C26.6545 6.39337 26.5496 6.21593 26.5616 6.06515L26.8231 5.9974L26.8756 5.86418C26.8234 5.43012 26.6151 5.18064 26.3907 4.82768C24.5207 1.88493 19.6199 2.62105 19.078 6.23394L19.0748 6.25646L18.9844 6.12613Z" fill="#05A6AD"/>
<path d="M60.1663 13.3641C61.2702 13.3723 62.5488 13.4119 63.6384 13.3477L58.2222 19.616C57.2824 20.6964 56.1991 21.9843 55.2004 22.9734C55.9056 23.939 57.1916 25.2662 58.0163 26.231L64.0481 33.3172C63.1882 33.3286 59.965 33.4498 59.3936 33.1614C58.3316 32.6253 55.712 29.251 54.8657 28.2015C53.9354 27.0479 52.0083 24.9827 51.4852 23.8453C51.4793 24.1998 51.4978 24.5626 51.5114 24.9176C51.4366 27.6591 51.4937 30.5674 51.4744 33.3251C50.2009 33.3597 48.8252 33.3383 47.5438 33.3423C47.7202 26.8287 47.4603 19.9673 47.5647 13.3973C48.7617 13.3361 50.2153 13.4121 51.4771 13.3786L51.4842 22.6033C51.9359 21.745 52.8872 20.7235 53.5371 19.9326C54.9739 18.1837 56.432 16.4524 57.9111 14.7392C58.6864 13.8489 58.9761 13.4469 60.1663 13.3641Z" fill="white" fill-opacity="0.8"/>
<path d="M98.845 19.0438C100.459 18.7935 102.86 19.4361 103.973 20.6467C105.812 22.6492 105.713 24.9256 105.668 27.4337C102.665 27.5102 99.4342 27.4556 96.4154 27.4488C96.5355 28.1105 96.5916 28.5353 96.9526 29.1238C98.5508 31.7313 102.581 31.0017 104.781 29.6867L104.862 29.6355L104.942 29.705C105.013 30.556 104.987 31.6596 104.97 32.5184C103.764 33.2542 103.087 33.4013 101.735 33.604C97.5438 34.22 93.2856 32.6313 92.7506 27.8801C92.2394 23.343 93.9591 19.681 98.845 19.0438ZM96.4154 25.0528L99.7986 25.044C100.634 25.0455 101.586 25.0692 102.412 25.0377C102.131 22.9098 101.666 21.5619 99.2011 21.6949C97.2033 22.2398 96.7588 23.0652 96.4154 25.0528Z" fill="white" fill-opacity="0.8"/>
<path d="M85.4242 19.0357C87.8532 18.7764 89.9135 19.8555 90.5237 22.3102C90.9029 23.8353 90.8284 25.596 90.8362 27.1657C90.8481 29.2192 90.8362 31.2727 90.8004 33.3259C89.5546 33.3362 88.3089 33.337 87.0632 33.3282C86.9628 30.1534 87.2275 26.8204 86.9206 23.6598C86.8202 22.6308 85.887 22.0871 84.932 21.9944C84.0774 21.9115 83.4946 22.2235 82.8394 22.7603C82.8275 22.772 82.8148 22.7838 82.8029 22.7958C81.9027 23.6985 82.1323 26.2366 82.1351 27.4708C82.1449 29.4212 82.1456 31.3717 82.1365 33.3221C80.8887 33.3365 79.6415 33.3372 78.3937 33.3244C78.3059 28.8649 78.353 23.8543 78.3902 19.3773C79.5376 19.319 80.8009 19.3522 81.9567 19.36L81.9918 21.5671C82.6484 20.0154 83.8288 19.3501 85.4242 19.0357Z" fill="white" fill-opacity="0.8"/>
<path d="M116.803 19.435C118.019 19.1516 119.76 19.388 121.01 19.3412C119.997 20.4102 119.186 22.0192 118.214 23.0991C117.865 23.8712 116.257 25.5207 115.966 26.2316C116.125 26.8338 120.285 32.3501 121.013 33.3534C120.005 33.3352 117.332 33.4795 116.659 33.2024C115.76 32.8318 113.866 29.5266 113.518 28.5775C112.773 30.0323 111.484 32.0576 110.461 33.3326C109.13 33.381 107.606 33.3337 106.273 33.3069C106.606 32.9656 107.912 31.1256 108.258 30.6171C109.29 29.1008 110.342 27.8235 111.422 26.3932C109.751 24.1901 108.053 21.6923 106.469 19.4115C106.844 19.3617 107.408 19.3113 107.787 19.3268C109.169 19.3835 110.543 18.9596 111.419 20.3201C112.234 21.5842 112.983 22.8459 113.765 24.1127C114.272 23.1435 115.006 22.0019 115.589 21.0594C115.965 20.388 116.286 20.0027 116.803 19.435Z" fill="#13915B"/>
<path d="M116.808 19.435C118.023 19.1516 119.765 19.388 121.015 19.3412C120.002 20.4102 119.19 22.0192 118.219 23.0991C118.216 23.0328 118.213 22.9517 118.209 22.8556C117.759 22.4139 117.033 22.113 116.524 21.7251C116.262 21.5256 116.188 21.3897 115.95 21.225C115.811 21.1289 115.776 21.2551 115.594 21.0594C115.969 20.388 116.29 20.0027 116.808 19.435Z" fill="#48A641"/>
<path d="M48.7891 41.4852C49.5423 41.2058 50.7068 41.0004 51.5185 40.7848C53.1931 40.3399 54.7761 39.9737 56.4687 39.6258C69.2685 37.0299 82.3349 35.9881 95.3848 36.5229C98.1852 36.6258 101.725 36.7405 104.49 37.0736L104.558 37.1876C105.527 37.2872 111.908 37.9004 112.255 38.3177C112.022 38.5098 111.465 38.8731 111.41 39.1527C111.549 39.3371 111.868 39.2758 111.932 39.4098C111.253 39.45 109.803 39.1769 109.33 39.1846C108.459 39.1989 104.202 38.6858 103.686 38.8865C100.466 38.7507 97.1888 38.5197 93.9537 38.4667C83.8566 38.3171 73.7589 38.7701 63.7153 39.8232C60.4004 40.1783 57.0947 40.615 53.8014 41.133C52.4637 41.3459 49.9621 41.8764 48.7963 41.9646C48.966 41.7538 48.9889 41.7992 48.9733 41.5936L48.7891 41.4852Z" fill="#118291"/>
<path d="M140.069 22.0176C140.632 23.3182 140.569 24.5847 140.571 25.9732C140.572 28.1412 140.549 30.3092 140.558 32.4772C140.56 32.7708 140.565 33.0607 140.536 33.3536C139.498 33.3553 138.222 33.3904 137.205 33.2989C137.147 32.6073 137.159 32.1609 137.181 31.4653C136.423 32.583 135.25 33.3525 133.923 33.6033C132.434 33.8906 131.17 33.6347 129.894 32.8879C128.052 31.81 127.867 28.8475 128.939 27.2317C130.388 25.0478 134.634 24.8348 136.964 24.752C136.912 23.7776 136.928 23.5445 136.559 22.6466L136.639 22.6461C137.129 22.962 136.789 23.7842 137.842 23.5391C138.879 23.2976 139.282 23.3466 140.197 22.7094C140.079 22.4271 140.022 22.3257 140.069 22.0176ZM132.45 31.0186C132.626 31.0762 132.839 31.1524 133.014 31.1997C133.951 31.4275 134.792 31.3589 135.636 30.8422C136.247 30.4699 136.682 29.8682 136.844 29.1722C137.005 28.486 136.931 27.5802 136.938 26.8681C136.651 26.8749 136.063 26.8725 135.801 26.9067C134.012 27.1035 131.547 27.2311 131.764 29.7207C131.811 30.2632 132.108 30.6171 132.45 31.0186Z" fill="#1C9752"/>
<path d="M65.4302 13.3655C66.3436 13.2877 68.1068 13.3365 69.0987 13.3252C69.1009 14.9764 69.2083 33.0785 69.0152 33.3385L65.3359 33.3347C65.4054 31.6923 65.3162 13.6028 65.4302 13.3655Z" fill="white" fill-opacity="0.8"/>
<path d="M122.497 19.3963C123.602 19.2905 125.113 19.2707 126.231 19.3667C126.198 20.821 126.273 22.5497 126.206 23.9214C126.355 24.3574 126.228 32.3497 126.21 33.3593L122.513 33.3213C122.461 29.8267 122.455 26.3315 122.494 22.8368C122.454 21.8307 122.559 20.184 122.497 19.3963Z" fill="#0E9855"/>
<path d="M122.497 19.3963C123.601 19.2905 125.112 19.2707 126.231 19.3667C126.198 20.821 126.272 22.5497 126.206 23.9214L126.11 23.9272C126.059 23.6817 126.112 22.5225 126.076 22.0745C125.893 22.0553 125.524 22.1027 125.297 22.0944C124.633 22.0686 124 21.9481 123.334 21.9954C123.096 22.0124 122.785 21.9295 122.629 21.7374C122.61 22.3857 122.596 23.0342 122.586 23.6828C122.57 23.3523 122.549 23.1629 122.494 22.8368C122.454 21.8307 122.559 20.184 122.497 19.3963Z" fill="#48A641"/>
<path d="M71.9372 19.3872C73.0193 19.3121 74.522 19.3602 75.642 19.3684C75.7614 20.7608 75.6933 23.1166 75.6926 24.5982C75.7087 27.5144 75.6947 30.4307 75.6519 33.3467C74.6512 33.2813 73.0179 33.3352 71.9709 33.3376C71.8459 28.7899 72.0081 23.9839 71.9372 19.3872Z" fill="white" fill-opacity="0.8"/>
<path d="M13.8735 10.8262C14.6512 10.7117 15.4442 10.8788 16.1094 11.2974C17.0024 11.8609 17.639 12.7514 17.8829 13.7782C18.304 15.6036 17.327 17.1472 15.5002 17.5556C10.8329 18.1121 9.52774 11.5161 13.8735 10.8262Z" fill="white" fill-opacity="0.8"/>
<path d="M34.5619 10.6914C35.8356 10.708 36.7703 11.1926 37.4215 12.3554C37.7436 12.9306 37.6919 14.0927 37.4391 14.6906C36.7261 16.3768 35.0032 16.4515 33.4679 16.8038C33.1737 16.8774 31.7064 17.5558 31.3025 17.7265C30.7148 17.9617 29.046 18.5668 28.5312 18.1215C28.6042 17.9724 29.4917 17.3532 29.753 17.101C30.139 16.7306 30.4793 16.3153 30.7665 15.864C32.0648 13.8299 31.6068 11.021 34.5619 10.6914Z" fill="#48A641"/>
<path d="M15.9796 28.6425C16.2852 28.622 16.7402 28.6197 17.0051 28.7849C17.0455 28.9706 16.7004 29.111 16.5163 29.2238C14.539 30.4359 14.2278 32.2728 13.4663 34.2423C12.8257 35.8989 11.2059 36.5049 9.54992 35.7344C9.45772 35.6863 9.36735 35.635 9.27887 35.5805C7.94854 34.755 7.53044 33.0434 8.34774 31.6884C9.14468 30.367 11.1587 30.3905 12.4706 29.918C13.6496 29.4934 14.7305 28.9197 15.9796 28.6425Z" fill="white" fill-opacity="0.8"/>
<path d="M129.58 20.2957C132.324 18.5512 138.861 18.1178 140.073 22.0162C140.025 22.3244 140.083 22.4257 140.2 22.7081C139.286 23.3453 138.882 23.2963 137.845 23.5378C136.793 23.7828 137.132 22.9606 136.642 22.6448L136.562 22.6453C134.896 20.9345 131.384 21.9854 129.621 23.0941C129.538 22.1636 129.525 21.2282 129.58 20.2957Z" fill="#48A641"/>
<path d="M30.8539 29.3235C32.5005 28.9525 34.1364 29.9854 34.5081 31.6308C34.8799 33.2762 33.8468 34.9113 32.2004 35.2833C30.5534 35.6555 28.9164 34.6225 28.5445 32.9764C28.1726 31.3303 29.2067 29.6947 30.8539 29.3235Z" fill="white" fill-opacity="0.8"/>
<path d="M104.492 37.0742C105.871 37.1469 107.828 37.4396 109.241 37.6022C114.659 38.2119 120.036 39.1464 125.342 40.4008C127.188 40.8354 129.059 41.2344 130.86 41.82C131.662 42.0809 132.6 42.2486 133.35 42.5974C130.98 42.2866 128.346 41.686 125.983 41.3287C122.474 40.798 118.837 40.3257 115.311 39.8974C112.856 39.624 110.395 39.3977 107.931 39.2187C106.675 39.1278 104.885 39.0554 103.688 38.8871C104.203 38.6864 108.46 39.1995 109.331 39.1852C109.804 39.1775 111.254 39.4506 111.933 39.4104C111.869 39.2764 111.55 39.3377 111.411 39.1533C111.467 38.8737 112.023 38.5104 112.257 38.3183C111.909 37.901 105.528 37.2878 104.559 37.1882L104.492 37.0742Z" fill="#48A641"/>
<path d="M73.365 13.1363C74.0314 13.1088 74.5138 13.0879 75.0987 13.467C75.5531 13.7599 75.8684 14.2245 75.973 14.7544C76.223 15.9921 75.4723 16.8213 74.2877 17.0432C73.6318 17.0834 73.0995 17.0815 72.5322 16.6965C72.087 16.3998 71.7808 15.9353 71.6832 15.4091C71.4711 14.2641 72.2541 13.3313 73.365 13.1363Z" fill="white" fill-opacity="0.8"/>
<path d="M123.911 13.1384C125.121 13.081 126.118 13.2504 126.507 14.6039C126.855 15.8166 126.078 16.7361 124.909 17.0312C121.315 17.2703 121.718 13.4959 123.911 13.1384Z" fill="#48A641"/>
<path d="M48.8041 41.9637C48.0056 42.0671 46.2617 42.4681 45.5781 42.4541C45.8318 42.3012 48.3247 41.6063 48.7969 41.4844L48.9811 41.5927C48.9968 41.7984 48.9738 41.753 48.8041 41.9637Z" fill="black"/>
</svg>
