<svg preserveAspectRatio="none" width="100%" height="100%" overflow="visible" style="display: block;" viewBox="0 0 29.4477 29.4473" fill="none" xmlns="http://www.w3.org/2000/svg">
<g id="Frame">
<path id="Vector" d="M19.6318 13.4967L22.0858 15.9506L26.9937 11.0427" stroke="var(--stroke-0, white)" stroke-width="2" stroke-linecap="round" stroke-linejoin="round"/>
<path id="Vector_2" d="M19.6318 25.7664V23.3124C19.6318 22.0108 19.1147 20.7624 18.1943 19.842C17.2739 18.9216 16.0255 18.4045 14.7238 18.4045H7.36192C6.06025 18.4045 4.8119 18.9216 3.89148 19.842C2.97106 20.7624 2.45397 22.0108 2.45397 23.3124V25.7664" stroke="var(--stroke-0, white)" stroke-width="2" stroke-linecap="round" stroke-linejoin="round"/>
<path id="Vector_3" d="M11.0429 13.4967C13.7535 13.4967 15.9508 11.2993 15.9508 8.58879C15.9508 5.87824 13.7535 3.68091 11.0429 3.68091C8.3323 3.68091 6.13494 5.87824 6.13494 8.58879C6.13494 11.2993 8.3323 13.4967 11.0429 13.4967Z" stroke="var(--stroke-0, white)" stroke-width="2" stroke-linecap="round" stroke-linejoin="round"/>
</g>
</svg>
