<svg preserveAspectRatio="none" width="100%" height="100%" overflow="visible" style="display: block;" viewBox="0 0 58.8962 58.8962" fill="none" xmlns="http://www.w3.org/2000/svg">
<path id="Vector" d="M29.4481 0C13.1859 0 0 13.1859 0 29.4481C0 45.7103 13.1859 58.8962 29.4481 58.8962C45.7103 58.8962 58.8962 45.7103 58.8962 29.4481C58.8962 13.1859 45.7103 0 29.4481 0ZM42.1673 19.8315L28.3241 39.0253C28.1306 39.2954 27.8756 39.5154 27.5801 39.6672C27.2846 39.819 26.9571 39.8982 26.6249 39.8982C26.2927 39.8982 25.9653 39.819 25.6698 39.6672C25.3743 39.5154 25.1192 39.2954 24.9257 39.0253L16.7289 27.6668C16.4791 27.3184 16.7289 26.832 17.1562 26.832H20.239C20.9095 26.832 21.5471 27.1541 21.9415 27.7062L26.6216 34.2006L36.9548 19.8709C37.3492 19.3253 37.9802 18.9967 38.6572 18.9967H41.7401C42.1673 18.9967 42.4171 19.4831 42.1673 19.8315V19.8315Z" fill="var(--fill-0, #0D9488)"/>
</svg>
