<svg preserveAspectRatio="none" width="100%" height="100%" overflow="visible" style="display: block;" viewBox="0 0 16 16" fill="none" xmlns="http://www.w3.org/2000/svg">
<g id="Frame">
<path id="Vector" d="M2.66667 1.33333V14.6667L4 14L5.33333 14.6667L6.66667 14L8 14.6667L9.33333 14L10.6667 14.6667L12 14L13.3333 14.6667V1.33333L12 2L10.6667 1.33333L9.33333 2L8 1.33333L6.66667 2L5.33333 1.33333L4 2L2.66667 1.33333Z" stroke="var(--stroke-0, #2DD4BF)" stroke-width="2" stroke-linecap="round" stroke-linejoin="round"/>
<path id="Vector_2" d="M10.6667 5.33333H6.66667C6.31304 5.33333 5.97391 5.47381 5.72386 5.72386C5.47381 5.97391 5.33333 6.31304 5.33333 6.66667C5.33333 7.02029 5.47381 7.35943 5.72386 7.60948C5.97391 7.85952 6.31304 8 6.66667 8H9.33333C9.68696 8 10.0261 8.14048 10.2761 8.39052C10.5262 8.64057 10.6667 8.97971 10.6667 9.33333C10.6667 9.68696 10.5262 10.0261 10.2761 10.2761C10.0261 10.5262 9.68696 10.6667 9.33333 10.6667H5.33333" stroke="var(--stroke-0, #2DD4BF)" stroke-width="2" stroke-linecap="round" stroke-linejoin="round"/>
<path id="Vector_3" d="M8 11.6667V4.33333" stroke="var(--stroke-0, #2DD4BF)" stroke-width="2" stroke-linecap="round" stroke-linejoin="round"/>
</g>
</svg>
