<svg preserveAspectRatio="none" width="100%" height="100%" overflow="visible" style="display: block;" viewBox="0 0 28 28" fill="none" xmlns="http://www.w3.org/2000/svg">
<g id="Frame">
<path id="Vector" d="M16.3333 2.33333V7C16.3333 7.61884 16.5792 8.21233 17.0168 8.64992C17.4543 9.0875 18.0478 9.33333 18.6667 9.33333H23.3333" stroke="var(--stroke-0, white)" stroke-width="2" stroke-linecap="round" stroke-linejoin="round"/>
<path id="Vector_2" d="M4.66667 8.16667V4.66667C4.66667 4.04783 4.9125 3.45434 5.35008 3.01675C5.78767 2.57917 6.38116 2.33333 7 2.33333" stroke="var(--stroke-0, white)" stroke-width="2" stroke-linecap="round" stroke-linejoin="round"/>
<path id="Vector_3" d="M4.74017 24.4988C4.96867 24.9036 5.31284 25.2309 5.72856 25.4387C6.14428 25.6466 6.6126 25.7255 7.0735 25.6655L21 25.6667C21.6188 25.6667 22.2123 25.4208 22.6499 24.9832C23.0875 24.5457 23.3333 23.9522 23.3333 23.3333V8.16667L17.5 2.33333H7" stroke="var(--stroke-0, white)" stroke-width="2" stroke-linecap="round" stroke-linejoin="round"/>
<path id="Vector_4" d="M5.83333 12.8333L2.33333 16.3333" stroke="var(--stroke-0, white)" stroke-width="2" stroke-linecap="round" stroke-linejoin="round"/>
<path id="Vector_5" d="M5.83333 19.8333L2.33333 16.3333H14" stroke="var(--stroke-0, white)" stroke-width="2" stroke-linecap="round" stroke-linejoin="round"/>
</g>
</svg>
